<svg width="47" height="47" viewBox="0 0 47 47" fill="none" xmlns="http://www.w3.org/2000/svg">
<path d="M23.4375 32.8125C21.5833 32.8125 19.7707 32.2627 18.229 31.2325C16.6873 30.2024 15.4857 28.7382 14.7761 27.0252C14.0666 25.3121 13.8809 23.4271 14.2426 21.6085C14.6044 19.79 15.4973 18.1195 16.8084 16.8084C18.1195 15.4973 19.79 14.6044 21.6085 14.2426C23.4271 13.8809 25.3121 14.0666 27.0252 14.7761C28.7382 15.4857 30.2024 16.6873 31.2325 18.229C32.2627 19.7707 32.8125 21.5833 32.8125 23.4375C32.8125 25.9239 31.8248 28.3085 30.0666 30.0666C28.3085 31.8248 25.9239 32.8125 23.4375 32.8125ZM23.4375 17.1875C22.2014 17.1875 20.993 17.5541 19.9652 18.2408C18.9374 18.9276 18.1363 19.9037 17.6633 21.0457C17.1902 22.1878 17.0664 23.4444 17.3076 24.6568C17.5488 25.8692 18.144 26.9828 19.0181 27.8569C19.8922 28.731 21.0058 29.3263 22.2182 29.5674C23.4306 29.8086 24.6872 29.6848 25.8293 29.2118C26.9713 28.7387 27.9474 27.9376 28.6342 26.9098C29.3209 25.882 29.6875 24.6736 29.6875 23.4375C29.6875 21.7799 29.029 20.1902 27.8569 19.0181C26.6848 17.846 25.0951 17.1875 23.4375 17.1875Z" fill="#4D4C4C"/>
<path d="M31.25 46.8751H15.625C13.9674 46.8751 12.3777 46.2166 11.2056 45.0445C10.0335 43.8724 9.375 42.2827 9.375 40.6251V36.6407C9.37781 36.3304 9.47293 36.028 9.64824 35.772C9.82355 35.516 10.0711 35.318 10.3594 35.2032L16.0469 32.9219C16.2397 32.8365 16.4478 32.7909 16.6586 32.788C16.8695 32.7851 17.0788 32.8249 17.2738 32.905C17.4689 32.9851 17.6457 33.1039 17.7937 33.2542C17.9416 33.4045 18.0576 33.5832 18.1347 33.7795C18.2117 33.9758 18.2482 34.1857 18.242 34.3965C18.2358 34.6073 18.1869 34.8146 18.0984 35.006C18.0099 35.1975 17.8836 35.369 17.7271 35.5103C17.5705 35.6516 17.387 35.7597 17.1875 35.8282L12.5 37.7032V40.6251C12.5 41.4539 12.8292 42.2487 13.4153 42.8348C14.0013 43.4208 14.7962 43.7501 15.625 43.7501H31.25C32.0788 43.7501 32.8737 43.4208 33.4597 42.8348C34.0458 42.2487 34.375 41.4539 34.375 40.6251V37.7032L29.6875 35.8282C29.3021 35.6749 28.9934 35.3747 28.8293 34.9938C28.6652 34.6128 28.6592 34.1823 28.8125 33.7969C28.9658 33.4115 29.266 33.1028 29.6469 32.9387C30.0278 32.7747 30.4584 32.7686 30.8437 32.9219L36.5312 35.2032C36.8195 35.318 37.0671 35.516 37.2424 35.772C37.4177 36.028 37.5128 36.3304 37.5156 36.6407V40.6251C37.5156 41.4471 37.3535 42.2611 37.0384 43.0204C36.7233 43.7797 36.2615 44.4694 35.6795 45.05C35.0975 45.6306 34.4067 46.0906 33.6466 46.4038C32.8865 46.717 32.0721 46.8771 31.25 46.8751Z" fill="#4D4C4C"/>
<path d="M12.5 15.625C10.9548 15.625 9.44437 15.1668 8.15961 14.3084C6.87485 13.4499 5.8735 12.2298 5.28219 10.8022C4.69089 9.37467 4.53617 7.80384 4.83762 6.28836C5.13907 4.77288 5.88313 3.38083 6.97573 2.28823C8.06833 1.19563 9.46038 0.451566 10.9759 0.150119C12.4913 -0.151329 14.0622 0.00338503 15.4897 0.594695C16.9173 1.186 18.1374 2.18735 18.9959 3.47211C19.8543 4.75687 20.3125 6.26734 20.3125 7.8125C20.3125 8.83846 20.1104 9.85436 19.7178 10.8022C19.3252 11.7501 18.7497 12.6113 18.0243 13.3368C17.2988 14.0622 16.4376 14.6377 15.4897 15.0303C14.5419 15.4229 13.526 15.625 12.5 15.625ZM12.5 3.125C11.5729 3.125 10.6666 3.39992 9.89577 3.91499C9.12491 4.43006 8.5241 5.16215 8.16932 6.01867C7.81453 6.8752 7.7217 7.8177 7.90257 8.72699C8.08344 9.63628 8.52988 10.4715 9.18544 11.1271C9.841 11.7826 10.6762 12.2291 11.5855 12.4099C12.4948 12.5908 13.4373 12.498 14.2938 12.1432C15.1504 11.7884 15.8824 11.1876 16.3975 10.4167C16.9126 9.64588 17.1875 8.7396 17.1875 7.8125C17.1875 6.5693 16.6936 5.37702 15.8146 4.49794C14.9355 3.61886 13.7432 3.125 12.5 3.125Z" fill="#4D4C4C"/>
<path d="M10.9375 28.7344H6.25C4.5924 28.7344 3.00269 28.0759 1.83058 26.9038C0.658481 25.7317 7.32493e-07 24.142 7.32493e-07 22.4844V19.75C-0.000302208 19.4371 0.0933677 19.1313 0.268877 18.8722C0.444387 18.6131 0.693648 18.4127 0.984376 18.2969L5.96875 16.3438C6.34834 16.1931 6.77185 16.197 7.14858 16.3547C7.52531 16.5124 7.82532 16.8113 7.98438 17.1875C8.06049 17.3783 8.09823 17.5823 8.09543 17.7877C8.09264 17.9931 8.04937 18.1959 7.9681 18.3846C7.88683 18.5732 7.76915 18.744 7.6218 18.8872C7.47445 19.0303 7.30032 19.143 7.10938 19.2188L3.125 20.8125V22.4844C3.125 23.3132 3.45424 24.108 4.04029 24.6941C4.62634 25.2801 5.4212 25.6094 6.25 25.6094H10.9375C11.3519 25.6094 11.7493 25.774 12.0424 26.067C12.3354 26.3601 12.5 26.7575 12.5 27.1719C12.5 27.5863 12.3354 27.9837 12.0424 28.2767C11.7493 28.5698 11.3519 28.7344 10.9375 28.7344Z" fill="#4D4C4C"/>
<path d="M34.375 15.625C32.8298 15.625 31.3194 15.1668 30.0346 14.3084C28.7499 13.4499 27.7485 12.2298 27.1572 10.8022C26.5659 9.37467 26.4112 7.80384 26.7126 6.28836C27.0141 4.77288 27.7581 3.38083 28.8507 2.28823C29.9433 1.19563 31.3354 0.451566 32.8509 0.150119C34.3663 -0.151329 35.9372 0.00338503 37.3647 0.594695C38.7923 1.186 40.0124 2.18735 40.8709 3.47211C41.7293 4.75687 42.1875 6.26734 42.1875 7.8125C42.1875 9.88451 41.3644 11.8716 39.8993 13.3368C38.4341 14.8019 36.447 15.625 34.375 15.625ZM34.375 3.125C33.4479 3.125 32.5416 3.39992 31.7708 3.91499C30.9999 4.43006 30.3991 5.16215 30.0443 6.01867C29.6895 6.8752 29.5967 7.8177 29.7776 8.72699C29.9584 9.63628 30.4049 10.4715 31.0604 11.1271C31.716 11.7826 32.5512 12.2291 33.4605 12.4099C34.3698 12.5908 35.3123 12.498 36.1688 12.1432C37.0254 11.7884 37.7575 11.1876 38.2725 10.4167C38.7876 9.64588 39.0625 8.7396 39.0625 7.8125C39.0625 6.5693 38.5686 5.37702 37.6896 4.49794C36.8105 3.61886 35.6182 3.125 34.375 3.125Z" fill="#4D4C4C"/>
<path d="M40.625 28.7344H35.9375C35.5231 28.7344 35.1257 28.5698 34.8326 28.2768C34.5396 27.9838 34.375 27.5863 34.375 27.1719C34.375 26.7575 34.5396 26.3601 34.8326 26.0671C35.1257 25.7741 35.5231 25.6094 35.9375 25.6094H40.625C41.4538 25.6094 42.2487 25.2802 42.8347 24.6941C43.4208 24.1081 43.75 23.3132 43.75 22.4844V20.8126L39.7656 19.2501C39.5747 19.1743 39.4006 19.0616 39.2532 18.9185C39.1059 18.7753 38.9882 18.6045 38.9069 18.4159C38.8256 18.2272 38.7824 18.0244 38.7796 17.819C38.7768 17.6136 38.8145 17.4096 38.8906 17.2188C39.0407 16.8342 39.337 16.5246 39.7147 16.3577C40.0924 16.1908 40.5208 16.1802 40.9063 16.3282L45.8906 18.2813C46.1814 18.3971 46.4306 18.5975 46.6061 18.8566C46.7816 19.1157 46.8753 19.4215 46.875 19.7344V22.4688C46.8771 23.2909 46.7169 24.1053 46.4037 24.8654C46.0906 25.6255 45.6305 26.3163 45.05 26.8983C44.4694 27.4803 43.7797 27.9421 43.0204 28.2572C42.2611 28.5723 41.4471 28.7344 40.625 28.7344Z" fill="#4D4C4C"/>
</svg>
