<svg width="50" height="50" viewBox="0 0 50 50" fill="none" xmlns="http://www.w3.org/2000/svg">
<path d="M43.457 37.7637L35.1758 29.375C36.5234 27.0215 37.2266 24.4043 37.2266 21.7676C37.2266 13.2129 30.2734 6.25 21.7383 6.25C13.2031 6.25 6.25 13.2129 6.25 21.7676C6.25 30.3223 13.2031 37.2852 21.7383 37.2852C24.4629 37.2852 27.1582 36.5332 29.5605 35.0977L37.8027 43.457C37.9883 43.6426 38.252 43.7598 38.5156 43.7598C38.7793 43.7598 39.043 43.6523 39.2285 43.457L43.457 39.1797C43.8477 38.7793 43.8477 38.1543 43.457 37.7637ZM21.7383 12.2949C26.9531 12.2949 31.1914 16.543 31.1914 21.7676C31.1914 26.9922 26.9531 31.2402 21.7383 31.2402C16.5234 31.2402 12.2852 26.9922 12.2852 21.7676C12.2852 16.543 16.5234 12.2949 21.7383 12.2949Z" fill="black" fill-opacity="0.7"/>
</svg>
