<svg width="50" height="50" viewBox="0 0 50 50" fill="none" xmlns="http://www.w3.org/2000/svg">
<g clip-path="url(#clip0_27_60)">
<path fill-rule="evenodd" clip-rule="evenodd" d="M43.5 27.5C43.5 26.75 43.75 26 43.75 25C43.75 24 43.75 23.25 43.5 22.5L48.75 18.25C49.25 17.75 49.25 17.25 49 16.75L44 8C43.75 7.75 43.25 7.5 42.5 7.75L36.25 10.25C35 9.25 33.5 8.5 32 7.75L31 1.25C31.25 0.5 30.5 0 30 0H20C19.5 0 18.75 0.5 18.75 1L17.75 7.75C16.25 8.25 15 9.25 13.5 10.25L7.50001 7.75C6.75001 7.5 6.25001 7.75 5.75001 8.25L0.750008 17C0.500008 17.25 0.750008 18 1.25001 18.5L6.50001 22.5C6.50001 23.25 6.25001 24 6.25001 25C6.25001 26 6.25001 26.75 6.50001 27.5L1.25001 31.75C0.750008 32.25 0.750008 32.75 1.00001 33.25L6.00001 42C6.25001 42.25 6.75001 42.5 7.50001 42.25L13.75 39.75C15 40.75 16.5 41.5 18 42.25L19 48.75C19 49.25 19.5 49.75 20.25 49.75H30.25C30.75 49.75 31.5 49.25 31.5 48.75L32.5 42.25C34 41.5 35.5 40.75 36.75 39.75L43 42.25C43.5 42.5 44.25 42.25 44.5 41.75L49.5 33C49.75 32.5 49.75 31.75 49.25 31.5L43.5 27.5ZM25 33.75C20.25 33.75 16.25 29.75 16.25 25C16.25 20.25 20.25 16.25 25 16.25C29.75 16.25 33.75 20.25 33.75 25C33.75 29.75 29.75 33.75 25 33.75Z" fill="#464646"/>
</g>
<defs>
<clipPath id="clip0_27_60">
<rect width="50" height="50" fill="white"/>
</clipPath>
</defs>
</svg>
